<svg width="166" height="166" viewBox="0 0 166 166" fill="none" xmlns="http://www.w3.org/2000/svg">
<path d="M83 36.3125C85.6304 36.312 88.2543 36.5726 90.8331 37.0906C98.9825 38.6514 106.477 42.6192 112.349 48.4818C118.221 54.3444 122.2 61.8325 123.774 69.9794L125.123 76.9825L132.126 78.2275C139.199 79.444 145.554 83.2817 149.924 88.9754C154.293 94.6691 156.357 101.801 155.702 108.948C155.047 116.095 151.723 122.733 146.392 127.538C141.061 132.344 134.115 134.963 126.938 134.875H38.9063C31.7296 134.963 24.7833 132.344 19.4522 127.538C14.1211 122.733 10.7969 116.095 10.1424 108.948C9.48789 101.801 11.5511 94.6691 15.9208 88.9754C20.2904 83.2817 26.6454 79.444 33.7188 78.2275L40.67 76.9825L42.0188 69.9794C43.8469 60.4671 48.9449 51.8939 56.4295 45.7452C63.9141 39.5964 73.3138 36.2595 83 36.3125ZM83 25.9375C70.9267 25.9275 59.228 30.129 49.9197 37.818C40.6115 45.507 34.2767 56.202 32.0069 68.06C22.4532 69.7897 13.8915 75.029 8.0034 82.7487C2.11528 90.4684 -0.673723 100.111 0.184188 109.782C1.0421 119.453 5.48493 128.453 12.64 135.016C19.7951 141.579 29.1454 145.229 38.8544 145.25H127.042C136.751 145.229 146.101 141.579 153.256 135.016C160.411 128.453 164.854 119.453 165.712 109.782C166.57 100.111 163.781 90.4684 157.893 82.7487C152.005 75.029 143.443 69.7897 133.889 68.06C131.936 57.8604 126.965 48.4821 119.622 41.1387C112.279 33.7954 102.9 28.8251 92.7006 26.8713C89.5024 26.2643 86.2553 25.9517 83 25.9375Z" fill="#9A9A9A"/>
</svg>
