<svg width="299" height="53" viewBox="0 0 299 53" fill="none" xmlns="http://www.w3.org/2000/svg">
<path d="M25.4611 14.9893V24.5815H0.535767V14.9893H25.4611ZM5.28808 51.8235V13.9342C5.28808 10.8966 5.83766 8.37861 6.93684 6.38022C8.03602 4.38183 9.58778 2.88702 11.5922 1.89585C13.5965 0.904644 15.9565 0.409058 18.6722 0.409058C20.3694 0.409058 22.0181 0.536946 23.6184 0.792738C25.2348 1.04853 26.431 1.27236 27.2069 1.4642L25.2672 10.9605C24.7823 10.8166 24.2165 10.7047 23.57 10.6248C22.9233 10.5289 22.3576 10.4809 21.8726 10.4809C20.6119 10.4809 19.7632 10.7447 19.3268 11.2722C18.8903 11.7998 18.6722 12.4953 18.6722 13.3586V51.8235H5.28808ZM39.4695 52.3991C37.0934 52.3991 34.9921 52.0153 33.1655 51.2479C31.355 50.4645 29.9325 49.2815 28.8981 47.6989C27.8635 46.1161 27.3463 44.1017 27.3463 41.6557C27.3463 39.6414 27.6938 37.9227 28.389 36.4999C29.0839 35.0611 30.0538 33.8861 31.2984 32.9747C32.5432 32.0634 33.9899 31.368 35.6386 30.8884C37.3035 30.4088 39.0977 30.097 41.0214 29.9531C43.1065 29.7933 44.7796 29.6015 46.0403 29.3777C47.3173 29.1378 48.2387 28.8101 48.8044 28.3945C49.3702 27.9628 49.653 27.3952 49.653 26.6918V26.596C49.653 25.6367 49.2812 24.9013 48.5377 24.3897C47.7942 23.8781 46.8405 23.6222 45.6766 23.6222C44.3997 23.6222 43.3571 23.902 42.5489 24.4615C41.7568 25.0052 41.28 25.8444 41.1183 26.9796H28.8011C28.9627 24.7413 29.682 22.6791 30.959 20.7926C32.2522 18.89 34.1354 17.3713 36.6085 16.2363C39.0816 15.0852 42.1689 14.5096 45.8706 14.5096C48.5377 14.5096 50.93 14.8214 53.0476 15.4449C55.165 16.0524 56.9674 16.9077 58.4546 18.0109C59.9417 19.0979 61.0732 20.377 61.8491 21.8477C62.6412 23.3026 63.0372 24.8852 63.0372 26.596V51.8235H50.526V46.6437H50.235C49.4914 48.0185 48.5863 49.1297 47.5193 49.977C46.4687 50.8244 45.2644 51.4399 43.9066 51.8235C42.565 52.2071 41.0859 52.3991 39.4695 52.3991ZM43.834 44.0537C44.8523 44.0537 45.8059 43.846 46.695 43.4302C47.6001 43.0146 48.3358 42.415 48.9015 41.6317C49.4672 40.8484 49.7501 39.8972 49.7501 38.7781V35.7086C49.3944 35.8525 49.0146 35.9883 48.6105 36.1162C48.2224 36.2441 47.8022 36.3639 47.3496 36.4758C46.9133 36.5877 46.4444 36.6918 45.9434 36.7876C45.4585 36.8836 44.9493 36.9715 44.4158 37.0514C43.3814 37.2113 42.5326 37.4751 41.87 37.8428C41.2235 38.1944 40.7385 38.6342 40.4152 39.1617C40.1081 39.6733 39.9545 40.2488 39.9545 40.8884C39.9545 41.9115 40.3181 42.6948 41.0456 43.2384C41.7729 43.782 42.7025 44.0537 43.834 44.0537ZM79.8097 52.3991C77.4334 52.3991 75.3321 52.0153 73.5055 51.2479C71.6952 50.4645 70.2727 49.2815 69.2381 47.6989C68.2037 46.1161 67.6864 44.1017 67.6864 41.6557C67.6864 39.6414 68.034 37.9227 68.729 36.4999C69.4241 35.0611 70.394 33.8861 71.6386 32.9747C72.8832 32.0634 74.3299 31.368 75.9786 30.8884C77.6436 30.4088 79.4379 30.097 81.3614 29.9531C83.4466 29.7933 85.1196 29.6015 86.3805 29.3777C87.6574 29.1378 88.5787 28.8101 89.1446 28.3945C89.7103 27.9628 89.9932 27.3952 89.9932 26.6918V26.596C89.9932 25.6367 89.6214 24.9013 88.8778 24.3897C88.1342 23.8781 87.1806 23.6222 86.0168 23.6222C84.7397 23.6222 83.6971 23.902 82.8889 24.4615C82.0968 25.0052 81.62 25.8444 81.4584 26.9796H69.1412C69.3028 24.7413 70.0222 22.6791 71.2991 20.7926C72.5922 18.89 74.4754 17.3713 76.9485 16.2363C79.4216 15.0852 82.5091 14.5096 86.2107 14.5096C88.8778 14.5096 91.2701 14.8214 93.3876 15.4449C95.5052 16.0524 97.3076 16.9077 98.7946 18.0109C100.282 19.0979 101.413 20.377 102.189 21.8477C102.981 23.3026 103.377 24.8852 103.377 26.596V51.8235H90.866V46.6437H90.575C89.8314 48.0185 88.9263 49.1297 87.8595 49.977C86.8088 50.8244 85.6045 51.4399 84.2468 51.8235C82.9051 52.2071 81.4261 52.3991 79.8097 52.3991ZM84.1739 44.0537C85.1923 44.0537 86.146 43.846 87.0351 43.4302C87.9403 43.0146 88.6757 42.415 89.2415 41.6317C89.8072 40.8484 90.0901 39.8972 90.0901 38.7781V35.7086C89.7345 35.8525 89.3546 35.9883 88.9505 36.1162C88.5626 36.2441 88.1424 36.3639 87.6898 36.4758C87.2533 36.5877 86.7846 36.6918 86.2834 36.7876C85.7985 36.8836 85.2893 36.9715 84.7559 37.0514C83.7214 37.2113 82.8728 37.4751 82.21 37.8428C81.5634 38.1944 81.0785 38.6342 80.7552 39.1617C80.4481 39.6733 80.2946 40.2488 80.2946 40.8884C80.2946 41.9115 80.6583 42.6948 81.3856 43.2384C82.1131 43.782 83.0425 44.0537 84.1739 44.0537ZM120.15 52.3991C117.774 52.3991 115.672 52.0153 113.846 51.2479C112.035 50.4645 110.613 49.2815 109.578 47.6989C108.544 46.1161 108.026 44.1017 108.026 41.6557C108.026 39.6414 108.374 37.9227 109.069 36.4999C109.764 35.0611 110.734 33.8861 111.979 32.9747C113.223 32.0634 114.67 31.368 116.319 30.8884C117.984 30.4088 119.778 30.097 121.702 29.9531C123.787 29.7933 125.46 29.6015 126.72 29.3777C127.997 29.1378 128.919 28.8101 129.485 28.3945C130.05 27.9628 130.333 27.3952 130.333 26.6918V26.596C130.333 25.6367 129.961 24.9013 129.218 24.3897C128.474 23.8781 127.521 23.6222 126.357 23.6222C125.08 23.6222 124.037 23.902 123.229 24.4615C122.437 25.0052 121.96 25.8444 121.798 26.9796H109.481C109.643 24.7413 110.362 22.6791 111.639 20.7926C112.932 18.89 114.816 17.3713 117.289 16.2363C119.762 15.0852 122.849 14.5096 126.551 14.5096C129.218 14.5096 131.61 14.8214 133.728 15.4449C135.845 16.0524 137.648 16.9077 139.135 18.0109C140.622 19.0979 141.753 20.377 142.529 21.8477C143.321 23.3026 143.717 24.8852 143.717 26.596V51.8235H131.206V46.6437H130.915C130.172 48.0185 129.266 49.1297 128.199 49.977C127.149 50.8244 125.945 51.4399 124.587 51.8235C123.245 52.2071 121.766 52.3991 120.15 52.3991ZM124.514 44.0537C125.532 44.0537 126.486 43.846 127.375 43.4302C128.28 43.0146 129.016 42.415 129.582 41.6317C130.147 40.8484 130.43 39.8972 130.43 38.7781V35.7086C130.075 35.8525 129.695 35.9883 129.291 36.1162C128.903 36.2441 128.482 36.3639 128.03 36.4758C127.593 36.5877 127.125 36.6918 126.624 36.7876C126.139 36.8836 125.629 36.9715 125.096 37.0514C124.062 37.2113 123.213 37.4751 122.55 37.8428C121.904 38.1944 121.419 38.6342 121.095 39.1617C120.788 39.6733 120.635 40.2488 120.635 40.8884C120.635 41.9115 120.998 42.6948 121.726 43.2384C122.453 43.782 123.383 44.0537 124.514 44.0537ZM184.154 26.9796H171.838C171.773 26.2282 171.506 25.5808 171.038 25.0371C170.568 24.4935 169.962 24.0779 169.219 23.7901C168.49 23.4864 167.682 23.3344 166.793 23.3344C165.645 23.3344 164.66 23.5423 163.836 23.958C163.012 24.3738 162.607 24.9653 162.623 25.7325C162.607 26.2762 162.841 26.7797 163.327 27.2434C163.828 27.707 164.789 28.0666 166.211 28.3225L173.777 29.6655C177.591 30.3528 180.428 31.5119 182.287 33.1426C184.162 34.7574 185.108 36.9236 185.124 39.6414C185.108 42.2633 184.316 44.5414 182.747 46.4758C181.197 48.3943 179.07 49.8811 176.372 50.9363C173.688 51.9754 170.625 52.4949 167.182 52.4949C161.492 52.4949 157.039 51.3439 153.822 49.0418C150.622 46.7397 148.835 43.7021 148.463 39.9291H161.75C161.929 41.0961 162.51 41.9994 163.496 42.6389C164.498 43.2624 165.759 43.5741 167.279 43.5741C168.507 43.5741 169.518 43.3664 170.31 42.9506C171.117 42.535 171.53 41.9435 171.547 41.176C171.53 40.4726 171.174 39.9131 170.479 39.4974C169.801 39.0818 168.734 38.7461 167.279 38.4903L160.684 37.3392C156.885 36.6837 154.04 35.4367 152.149 33.5983C150.258 31.7597 149.32 29.3936 149.336 26.5C149.32 23.942 149.999 21.7758 151.373 20.0012C152.763 18.2107 154.743 16.8518 157.313 15.9245C159.9 14.9812 162.963 14.5096 166.502 14.5096C171.886 14.5096 176.129 15.6128 179.233 17.8191C182.352 20.0252 183.993 23.0788 184.154 26.9796ZM212.461 14.9893V24.5815H187.925V14.9893H212.461ZM192.677 6.16444H206.061V39.9771C206.061 40.4887 206.151 40.9204 206.328 41.272C206.505 41.6077 206.78 41.8635 207.152 42.0394C207.524 42.1993 208.001 42.2792 208.583 42.2792C208.987 42.2792 209.456 42.2313 209.989 42.1353C210.538 42.0394 210.943 41.9595 211.202 41.8955L213.141 51.2C212.543 51.3759 211.686 51.5916 210.571 51.8474C209.472 52.1033 208.163 52.2711 206.643 52.351C203.572 52.511 200.994 52.1992 198.908 51.4157C196.823 50.6165 195.255 49.3614 194.205 47.6508C193.153 45.9402 192.645 43.7979 192.677 41.2241V6.16444ZM235.369 52.4949C231.392 52.4949 227.965 51.7436 225.088 50.2407C222.227 48.722 220.021 46.5477 218.47 43.718C216.934 40.8723 216.166 37.4671 216.166 33.5023C216.166 29.6973 216.942 26.3721 218.493 23.5264C220.045 20.6807 222.235 18.4665 225.064 16.8838C227.892 15.301 231.231 14.5096 235.078 14.5096C237.89 14.5096 240.436 14.9413 242.715 15.8046C244.994 16.6678 246.942 17.9229 248.559 19.5695C250.175 21.2002 251.421 23.1827 252.294 25.5168C253.167 27.8509 253.602 30.4808 253.602 33.4065V36.4758H220.336V29.1859H241.285C241.268 28.1306 240.994 27.2034 240.46 26.404C239.943 25.5886 239.241 24.9572 238.352 24.5096C237.479 24.0459 236.484 23.8141 235.369 23.8141C234.286 23.8141 233.291 24.0459 232.387 24.5096C231.482 24.9572 230.753 25.5808 230.204 26.38C229.671 27.1794 229.388 28.1147 229.355 29.1859V37.0514C229.355 38.2345 229.606 39.2896 230.108 40.2168C230.609 41.1442 231.327 41.8716 232.265 42.3991C233.203 42.9267 234.335 43.1905 235.66 43.1905C236.581 43.1905 237.422 43.0625 238.181 42.8067C238.958 42.5511 239.62 42.1833 240.169 41.7037C240.719 41.208 241.124 40.6165 241.382 39.9291H253.602C253.183 42.4871 252.188 44.7093 250.621 46.5958C249.052 48.4662 246.974 49.9211 244.388 50.9602C241.818 51.9833 238.812 52.4949 235.369 52.4949ZM259.064 51.8235V14.9893H272.06V21.9916H272.449C273.127 19.4017 274.201 17.5073 275.672 16.3082C277.16 15.1092 278.898 14.5096 280.886 14.5096C281.468 14.5096 282.042 14.5575 282.607 14.6535C283.189 14.7334 283.747 14.8534 284.28 15.0132V26.3081C283.617 26.0843 282.801 25.9165 281.832 25.8046C280.861 25.6927 280.029 25.6367 279.333 25.6367C278.025 25.6367 276.844 25.9324 275.794 26.5239C274.759 27.0995 273.943 27.9149 273.344 28.9699C272.746 30.0091 272.449 31.2322 272.449 32.639V51.8235H259.064ZM291.675 52.5909C289.801 52.5909 288.192 51.9434 286.85 50.6485C285.525 49.3374 284.87 47.7468 284.887 45.8762C284.87 44.0538 285.525 42.4951 286.85 41.2002C288.192 39.9052 289.801 39.2577 291.675 39.2577C293.454 39.2577 295.021 39.9052 296.378 41.2002C297.754 42.4951 298.448 44.0538 298.464 45.8762C298.448 47.1233 298.116 48.2584 297.471 49.2815C296.84 50.2888 296.016 51.0961 294.997 51.7035C293.979 52.2951 292.872 52.5909 291.675 52.5909Z" fill="#9E9E9E"/>
</svg>
