<svg width="166" height="166" viewBox="0 0 166 166" fill="none" xmlns="http://www.w3.org/2000/svg">
<path d="M134.875 98.5625C131.244 98.5625 127.613 100.119 125.019 102.194L102.712 88.7063C103.231 86.6312 103.75 85.075 103.75 83C103.75 80.925 103.231 78.85 102.712 77.2937L125.019 63.8063C127.613 65.8813 131.244 67.4375 134.875 67.4375C143.694 67.4375 150.438 60.6937 150.438 51.875C150.438 43.0562 143.694 36.3125 134.875 36.3125C126.056 36.3125 119.312 43.0562 119.312 51.875C119.312 52.9125 119.312 53.95 119.831 54.9875L97.525 68.475C93.8937 64.325 88.7063 62.25 83 62.25C79.8875 62.25 77.2937 62.7687 74.7 64.325L54.9875 39.425C56.025 36.8312 57.0625 34.2375 57.0625 31.125C57.0625 22.3062 50.3187 15.5625 41.5 15.5625C32.6812 15.5625 25.9375 22.3062 25.9375 31.125C25.9375 39.9438 32.6812 46.6875 41.5 46.6875C43.0563 46.6875 45.1312 46.1688 46.6875 45.65L66.4 70.55C64.8438 72.625 63.8063 75.2188 62.7688 77.8125H40.4625C38.3875 71.5875 32.6812 67.4375 25.9375 67.4375C17.1187 67.4375 10.375 74.1813 10.375 83C10.375 91.8187 17.1187 98.5625 25.9375 98.5625C32.6812 98.5625 38.3875 94.4125 40.4625 88.1875H62.7688C63.2875 90.7812 64.8438 93.375 66.4 95.45L46.6875 120.35C45.1312 119.831 43.0563 119.312 41.5 119.312C32.6812 119.312 25.9375 126.056 25.9375 134.875C25.9375 143.694 32.6812 150.438 41.5 150.438C50.3187 150.438 57.0625 143.694 57.0625 134.875C57.0625 131.762 56.025 129.169 54.4688 126.575L74.1813 101.675C76.775 102.713 79.8875 103.75 82.4812 103.75C88.1875 103.75 93.375 101.675 97.0063 97.525L119.312 111.012C119.312 112.05 118.794 113.088 118.794 114.125C118.794 122.944 125.537 129.688 134.356 129.688C143.175 129.688 149.919 122.944 149.919 114.125C149.919 105.306 143.694 98.5625 134.875 98.5625ZM134.875 46.6875C137.988 46.6875 140.062 48.7625 140.062 51.875C140.062 54.9875 137.988 57.0625 134.875 57.0625C131.762 57.0625 129.688 54.9875 129.688 51.875C129.688 48.7625 131.762 46.6875 134.875 46.6875ZM36.3125 31.125C36.3125 28.0125 38.3875 25.9375 41.5 25.9375C44.6125 25.9375 46.6875 28.0125 46.6875 31.125C46.6875 34.2375 44.6125 36.3125 41.5 36.3125C38.3875 36.3125 36.3125 34.2375 36.3125 31.125ZM25.9375 88.1875C22.825 88.1875 20.75 86.1125 20.75 83C20.75 79.8875 22.825 77.8125 25.9375 77.8125C29.05 77.8125 31.125 79.8875 31.125 83C31.125 86.1125 29.05 88.1875 25.9375 88.1875ZM41.5 140.062C38.3875 140.062 36.3125 137.988 36.3125 134.875C36.3125 131.762 38.3875 129.688 41.5 129.688C44.6125 129.688 46.6875 131.762 46.6875 134.875C46.6875 137.988 44.6125 140.062 41.5 140.062ZM83 93.375C77.2937 93.375 72.625 88.7063 72.625 83C72.625 77.2938 77.2937 72.625 83 72.625C88.7063 72.625 93.375 77.2938 93.375 83C93.375 88.7063 88.7063 93.375 83 93.375ZM134.875 119.312C131.762 119.312 129.688 117.238 129.688 114.125C129.688 111.012 131.762 108.938 134.875 108.938C137.988 108.938 140.062 111.012 140.062 114.125C140.062 117.238 137.988 119.312 134.875 119.312Z" fill="#9A9A9A"/>
</svg>
