<svg width="187" height="131" viewBox="0 0 187 131" fill="none" xmlns="http://www.w3.org/2000/svg">
<g clip-path="url(#clip0_20_11)">
<path d="M75.847 30.059C73.0239 49.8567 46.4789 52.4192 33.1457 51.2126C32.9042 51.1907 32.7322 50.9818 32.7445 50.7389C32.7577 50.4755 33.0002 50.2794 33.2621 50.3075C60.2033 53.1855 70.5512 24.4549 59.9592 16.4164C52.5016 10.7566 46.3411 15.1171 41.4775 22.2633L16.5106 69.3627C11.6469 77.8082 19.4288 79.7573 26.238 81.0564L5.16199 82.031C-3.26824 80.4069 1.81147 74.0187 3.86501 70.3373C18.8757 46.5085 29.0036 27.7772 31.9605 19.1404C32.4236 17.7875 31.3134 16.5295 29.8897 16.6356C18.7996 17.4615 13.1455 17.4909 11.6469 17.3909C10.3499 16.8712 11.1065 14.3592 11.6469 13.1682C11.9712 15.4419 13.9097 15.4419 17.4834 15.4419C27.2106 15.4419 32.4701 14.1186 49.5836 12.5185C73.2534 10.3053 77.4682 21.6136 75.847 30.059Z" fill="#9E9E9E"/>
<path fill-rule="evenodd" clip-rule="evenodd" d="M86.2232 111.915C114.517 111.915 137.454 88.9371 137.454 60.5925C137.454 32.248 114.517 9.27015 86.2232 9.27015C57.9294 9.27015 34.9928 32.248 34.9928 60.5925C34.9928 88.9371 57.9294 111.915 86.2232 111.915ZM86.2232 119.71C118.815 119.71 145.235 93.2424 145.235 60.5925C145.235 27.9424 118.815 1.47437 86.2232 1.47437C53.6315 1.47437 27.2108 27.9424 27.2108 60.5925C27.2108 93.2424 53.6315 119.71 86.2232 119.71Z" fill="#9E9E9E"/>
<path d="M88.8164 89.1769L72.2799 114.513C74.3551 111.395 82.2233 111.049 85.8981 111.265C96.7928 89.4369 110.757 67.9551 116.377 59.9427C133.886 59.9427 126.429 74.8847 126.429 74.8847C120.463 83.72 108.811 85.0626 103.731 84.6295V85.6039C117.674 108.175 121.241 119.71 138.101 127.506C151.59 133.743 165.554 128.806 170.85 125.557C144.91 138.81 121.997 103.794 113.783 84.6295C113.783 84.6295 132.085 84.6295 137.129 71.6364C140.76 62.2814 129.563 59.2932 123.51 58.9684H106.65C101.786 58.9684 94.0043 60.9173 84.2769 65.7897L82.3315 72.9358C90.3727 61.2421 101.138 59.618 105.353 60.5925L103.731 63.8406L88.8164 89.1769Z" fill="#9E9E9E"/>
<path d="M75.8468 30.059C73.0235 49.8565 46.4785 52.419 33.1453 51.2126C32.9037 51.1907 32.732 50.9816 32.7441 50.739C32.7573 50.4753 32.9998 50.2794 33.2619 50.3074C60.2031 53.1853 70.5508 24.4549 59.959 16.4163L65.471 13.5648C75.1908 16.5571 77.0028 24.0361 75.8468 30.059Z" fill="#9E9E9E"/>
<path d="M58.9865 54.7457C94.5235 49.5486 106.002 54.096 107.299 57.0194L108.86 52.5498C109.252 51.4275 108.671 50.1927 107.513 49.9308C99.0381 48.0139 84.9064 50.3864 70.3349 51.8223C73.7936 49.765 82.3319 42.7922 88.8168 31.3583C95.3017 19.9245 100.165 9.91991 101.787 6.34684C102.975 3.85651 107.039 -0.539439 113.784 1.7993V0.5C105.471 0.5 100.131 1.27184 97.121 1.91613C95.0785 2.35336 93.4919 3.80432 92.5435 5.6686C90.0686 10.5331 87.0565 16.3289 85.8985 19.015C77.0778 39.479 67.9571 50.3065 65.4712 51.8223C65.4712 51.8223 59.6349 53.2299 57.6895 52.7968C57.9488 53.8362 58.6621 54.5291 58.9865 54.7457Z" fill="#9E9E9E"/>
<path d="M185.822 71.4209C183.573 87.0945 162.429 89.1225 151.809 88.167C151.618 88.1497 151.482 87.9842 151.492 87.7918C151.502 87.5833 151.694 87.4282 151.901 87.4503C173.361 89.7309 181.604 66.9846 173.168 60.6207C166.35 55.4777 160.513 61.5636 158.447 65.2493L138.561 102.536C135.256 110.559 140.886 110.765 146.309 111.793L129.522 112.565C122.808 111.279 126.853 106.222 128.489 103.307C140.128 84.943 148.081 70.4034 150.668 63.3375C151.159 61.9941 150.067 60.7331 148.642 60.8363C140.188 61.449 135.855 61.4696 134.687 61.392C133.654 60.9808 134.257 58.992 134.687 58.0493C134.687 59.6949 137.376 59.6182 139.075 59.6182C151.511 59.6182 156.908 58.563 164.041 58.0493C182.847 56.6947 187.114 64.735 185.822 71.4209Z" fill="#9E9E9E"/>
</g>
<defs>
<clipPath id="clip0_20_11">
<rect width="186" height="130" fill="white" transform="translate(0.464233 0.5)"/>
</clipPath>
</defs>
</svg>
