<svg width="237" height="237" viewBox="0 0 237 237" fill="none" xmlns="http://www.w3.org/2000/svg">
<g clip-path="url(#clip0_15_29)">
<mask id="mask0_15_29" style="mask-type:luminance" maskUnits="userSpaceOnUse" x="0" y="0" width="237" height="237">
<path d="M236.464 0.5H0.464172V236.5H236.464V0.5Z" fill="white"/>
</mask>
<g mask="url(#mask0_15_29)">
<path d="M52.0255 60.7033H59.6917V82.6853H70.5176V60.7033H78.1839V50.5302H52.0255V60.7033Z" fill="#9E9E9E"/>
<path d="M170.779 82.5565H181.605V50.4015L170.779 57.6684V82.5565Z" fill="#9E9E9E"/>
<path d="M111.397 83.0714H122.222V74.5571H133.427V64.3838H122.222V61.0897H136.064V50.9164H111.397V83.0714Z" fill="#9E9E9E"/>
<path d="M161.443 187.786V155.843H174.69C178.405 155.843 181.29 156.638 183.268 158.205C185.263 159.789 186.276 162.076 186.276 165.002C186.276 167.453 185.408 169.468 183.697 170.988L183.364 171.284L183.731 171.535C186.033 173.106 187.199 175.357 187.199 178.227C187.199 181.177 186.183 183.535 184.178 185.237C182.185 186.929 179.273 187.786 175.521 187.786H161.443ZM170.658 179.904H175.161C175.991 179.904 176.658 179.681 177.2 179.223C177.727 178.78 177.983 178.22 177.983 177.514C177.983 176.167 177.292 175.426 175.809 175.186L170.658 175.128V179.904ZM170.797 168.192L174.807 168.142C176.708 167.867 176.921 166.778 176.921 165.982C176.921 165.252 176.676 164.719 176.17 164.353C175.621 163.957 174.983 163.765 174.219 163.765H170.797V168.192Z" fill="#9E9E9E"/>
<path d="M120.12 188.093C116.124 188.093 112.832 187.026 110.333 184.921C107.822 182.805 106.549 179.997 106.549 176.574V156.182H116.61V175.594C116.61 177.67 117.759 178.68 120.12 178.68C122.482 178.68 123.63 177.67 123.63 175.594V156.182H133.691V176.574C133.691 179.996 132.418 182.805 129.907 184.921C127.408 187.026 124.115 188.093 120.12 188.093Z" fill="#9E9E9E"/>
<path d="M55.3445 187.659V155.714H68.6848C72.1334 155.714 75.0571 156.777 77.3747 158.874C79.6943 160.974 80.8706 163.801 80.8706 167.278C80.8706 170.756 79.6943 173.583 77.3747 175.682C75.0586 177.779 72.135 178.842 68.6848 178.842H65.4059V187.659H55.3445ZM64.5954 170.074H68.8578C69.6371 170.074 70.2787 169.828 70.8176 169.325C71.35 168.828 71.6201 168.138 71.6201 167.278C71.6201 166.419 71.3495 165.73 70.8173 165.232C70.2851 164.734 69.6258 164.482 68.8578 164.482H64.5954V170.074Z" fill="#9E9E9E"/>
<path d="M179.19 123.826H169.002V112.815H179.19V123.826Z" fill="#9E9E9E"/>
<path d="M125.024 123.826H114.836V112.815H125.024V123.826Z" fill="#9E9E9E"/>
<path d="M70.859 123.826H60.671V112.815H70.859V123.826Z" fill="#9E9E9E"/>
</g>
</g>
<defs>
<clipPath id="clip0_15_29">
<rect width="236" height="236" fill="white" transform="translate(0.464172 0.5)"/>
</clipPath>
</defs>
</svg>
