<svg width="166" height="166" viewBox="0 0 166 166" fill="none" xmlns="http://www.w3.org/2000/svg">
<path d="M155.625 129.687H10.375V140.062H20.75V150.437H31.125V140.062H57.0625V150.437H67.4375V140.062H93.375V150.437H103.75V140.062H129.688V150.437H140.062V140.062H155.625V129.687ZM154.141 86.0606L94.1531 44.8199C81.1919 35.881 65.8145 31.1039 50.0698 31.1249H10.375V41.4999H50.0698C63.7146 41.4814 77.0413 45.6197 88.2757 53.3638L93.6499 57.0624H46.6875V67.4374H108.74L148.269 94.6096C149.151 95.2159 149.815 96.0885 150.165 97.0998C150.516 98.1111 150.533 99.2078 150.214 100.229C149.896 101.251 149.259 102.144 148.396 102.778C147.534 103.411 146.491 103.752 145.421 103.75H10.375V114.125H145.426C148.71 114.124 151.906 113.074 154.55 111.126C157.193 109.179 159.144 106.437 160.118 103.302C161.091 100.166 161.037 96.8017 159.961 93.6996C158.886 90.5975 156.847 87.9207 154.141 86.0606Z" fill="#9A9A9A"/>
</svg>
